<svg xmlns="http://www.w3.org/2000/svg" xmlns:xlink="http://www.w3.org/1999/xlink" width="940" zoomAndPan="magnify" viewBox="0 0 705 591.000005" height="788" preserveAspectRatio="xMidYMid meet" version="1.0"><path fill="#161c14" d="M 105.347656 52.714844 C 118.316406 34.230469 137.347656 23.875 155.773438 13.507812 C 169.046875 6.035156 184.039062 2.3125 200.015625 1.566406 C 225.136719 0.386719 247.300781 7.625 266.777344 22.148438 C 278.625 30.980469 289.097656 42.089844 298.609375 53.492188 C 307.070312 63.636719 313.851562 75.308594 320.5 86.8125 C 330.59375 104.28125 337.875 123 342.691406 142.640625 C 347.414062 161.902344 351.402344 181.265625 352.019531 201.179688 C 352.046875 202.042969 352.734375 202.890625 353.117188 203.742188 C 354.0625 202.753906 355.6875 201.863281 355.855469 200.753906 C 358.160156 185.308594 364.378906 171.191406 370.1875 156.890625 C 376.238281 141.988281 383.933594 128.050781 394.28125 115.808594 C 403.679688 104.683594 413.5 93.851562 423.84375 83.601562 C 438.273438 69.300781 452.667969 54.816406 468.363281 41.976562 C 484.40625 28.847656 502.898438 19.527344 523.542969 15.1875 C 555.292969 8.515625 585.023438 11.40625 609.054688 35.582031 C 623.011719 49.625 630.847656 67.394531 633.355469 87.121094 C 634.765625 98.191406 636.296875 109.425781 635.867188 120.511719 C 635.136719 139.378906 631.273438 157.832031 626.105469 176.089844 C 618.414062 203.25 606.453125 228.542969 594.65625 254.011719 C 584.867188 275.148438 576.574219 296.96875 566.933594 318.175781 C 561 331.234375 553.890625 343.761719 547.117188 356.425781 C 540.621094 368.574219 534.210938 380.789062 527.164062 392.617188 C 512.128906 417.847656 496.761719 442.875 481.4375 467.929688 C 461.78125 500.0625 442.269531 532.285156 422.15625 564.128906 C 417.398438 571.660156 411.046875 578.453125 404.40625 584.457031 C 398.714844 589.605469 392.1875 587.253906 387.1875 581.058594 C 382.929688 575.78125 377.703125 571.277344 372.832031 566.503906 C 353.792969 547.871094 334.066406 529.882812 315.886719 510.445312 C 302.863281 496.523438 291.589844 480.90625 280.09375 465.625 C 270.328125 452.648438 257.890625 442.664062 245.496094 432.5625 C 234.78125 423.832031 223.949219 415.25 213.054688 406.746094 C 189.234375 388.144531 166.679688 368.132812 145.933594 346.15625 C 130.082031 329.367188 116.828125 310.648438 104.910156 290.847656 C 90.894531 267.566406 81.691406 242.402344 74.800781 216.390625 C 72.058594 206.039062 71.644531 195.035156 70.566406 184.285156 C 69.765625 176.320312 68.761719 168.230469 69.324219 160.300781 C 71.078125 135.679688 75.128906 111.472656 86.304688 89.074219 C 92.34375 76.96875 98.765625 65.050781 105.347656 52.714844 M 478.769531 73.625 C 466.828125 78.542969 455.28125 84.050781 447.125 94.65625 C 435.382812 109.921875 422.480469 124.449219 412.230469 140.660156 C 399.847656 160.25 389.320312 181.0625 378.734375 201.722656 C 369.105469 220.515625 367.273438 241.5 364.050781 261.964844 C 362.421875 272.320312 362.34375 282.910156 361.210938 293.355469 C 360.148438 303.167969 351.511719 308.269531 345.570312 302.40625 C 343.207031 300.066406 343.59375 294.96875 342.660156 291.144531 C 342.347656 289.863281 341.820312 288.640625 341.394531 287.390625 C 340.492188 288.429688 339.285156 289.328125 338.75 290.527344 C 336.410156 295.75 334.503906 301.175781 331.984375 306.300781 C 329.96875 310.394531 322.261719 313.285156 319.25 310.863281 C 315.582031 307.910156 311.636719 304.890625 314.652344 298.558594 C 319.574219 288.242188 323.695312 277.535156 327.914062 266.898438 C 329.859375 261.988281 331.816406 257.421875 328.996094 251.511719 C 321.691406 236.214844 315.210938 220.511719 308.660156 204.863281 C 297.957031 179.296875 283.695312 155.824219 266.792969 133.96875 C 258.152344 122.792969 248.777344 112.179688 239.640625 101.390625 C 222.027344 80.589844 202.429688 62.207031 176.6875 51.789062 C 166.667969 47.738281 156.292969 44.824219 145.347656 48.402344 C 135.316406 51.683594 129.84375 60.308594 123.804688 67.847656 C 119.660156 73.023438 116.535156 79.441406 114.511719 85.800781 C 111.269531 95.976562 109.28125 106.4375 111.511719 117.414062 C 113.160156 125.511719 112.617188 134.09375 114.59375 142.078125 C 120.171875 164.617188 128.519531 186.253906 139.382812 206.765625 C 150.546875 227.851562 162.050781 248.78125 174.171875 269.332031 C 187.421875 291.800781 201.191406 313.988281 215.394531 335.871094 C 231.402344 360.53125 248.003906 384.808594 264.640625 409.054688 C 271.085938 418.449219 277.449219 428.183594 285.457031 436.144531 C 293.945312 444.582031 304.128906 451.394531 313.957031 458.375 C 330.824219 470.351562 347.734375 482.300781 365.117188 493.503906 C 378.269531 501.980469 392.1875 509.261719 405.75 517.105469 C 409.644531 519.355469 412.582031 519.667969 414.933594 514.707031 C 417.222656 509.871094 420.519531 505.523438 423.25 500.886719 C 434.039062 482.578125 444.769531 464.230469 455.539062 445.90625 C 464.945312 429.894531 474.203125 413.785156 483.835938 397.910156 C 494.585938 380.199219 505.882812 362.824219 516.585938 345.089844 C 530.242188 322.46875 542.824219 299.167969 557.160156 276.996094 C 577.582031 245.40625 585.042969 210.195312 588.074219 173.699219 C 589.097656 161.394531 587.882812 148.828125 586.855469 136.449219 C 585.75 123.15625 582.417969 110.445312 575.101562 98.871094 C 561.078125 76.691406 541.03125 64.382812 515.023438 64.789062 C 503.121094 64.976562 491.296875 70.085938 478.769531 73.625 M 331.394531 190.464844 C 328.429688 175.554688 326.753906 160.230469 322.167969 145.835938 C 316.914062 129.363281 310.070312 113.195312 302.136719 97.816406 C 288.78125 71.925781 271.097656 49.394531 245.476562 34.164062 C 225.886719 22.519531 205.128906 19.371094 183.101562 25.480469 C 180.871094 26.097656 178.839844 27.417969 176.714844 28.414062 C 178.847656 29.320312 180.980469 30.226562 183.113281 31.140625 C 183.675781 31.382812 184.210938 31.699219 184.785156 31.902344 C 203.769531 38.519531 219.5625 50.394531 233.722656 63.992188 C 247.460938 77.183594 259.738281 91.921875 272.335938 106.257812 C 291.160156 127.6875 305.484375 152.144531 318.679688 177.253906 C 323.226562 185.910156 326.542969 195.210938 330.574219 204.148438 C 331.019531 205.128906 332.464844 205.660156 333.449219 206.398438 C 333.765625 205.1875 334.492188 203.914062 334.320312 202.773438 C 333.734375 198.867188 332.835938 195.007812 331.394531 190.464844 M 93.730469 145.324219 C 92.625 148.144531 90.589844 150.960938 90.582031 153.785156 C 90.566406 162.882812 91.234375 171.988281 91.761719 181.085938 C 92.074219 186.4375 91.960938 191.929688 93.1875 197.085938 C 97.140625 213.671875 101.015625 230.171875 107.367188 246.226562 C 119.847656 277.769531 138.042969 305.402344 160.6875 330.1875 C 171.910156 342.472656 184.464844 353.554688 196.617188 364.964844 C 203.371094 371.304688 210.503906 377.242188 217.558594 383.25 C 218.667969 384.195312 220.28125 384.546875 221.660156 385.175781 C 221.164062 383.664062 221.007812 381.914062 220.125 380.683594 C 214.59375 372.996094 208.441406 365.714844 203.363281 357.746094 C 192.132812 340.140625 181.246094 322.308594 170.535156 304.378906 C 155.835938 279.773438 140.597656 255.433594 127.132812 230.15625 C 112.867188 203.367188 98.6875 176.261719 93.730469 145.324219 M 518.601562 44.417969 C 527.640625 42.699219 536.175781 45.023438 544.578125 47.859375 C 568.667969 55.992188 585.789062 72.429688 597.441406 94.40625 C 605.722656 110.015625 609.429688 127.058594 608.292969 144.9375 C 608.203125 146.363281 609.101562 147.847656 609.542969 149.304688 C 610.429688 147.816406 612.023438 146.363281 612.097656 144.832031 C 612.730469 131.546875 613.671875 118.234375 613.328125 104.960938 C 613.105469 96.425781 611.585938 87.753906 609.425781 79.464844 C 601.636719 49.550781 577.980469 32.636719 547.324219 34.003906 C 537.171875 34.453125 527.101562 37.195312 517.054688 39.195312 C 514.183594 39.765625 511.523438 41.402344 508.769531 42.550781 C 511.605469 43.171875 514.4375 43.792969 518.601562 44.417969 M 348.652344 507.792969 C 347.429688 507.011719 346.28125 506.046875 344.960938 505.492188 C 343.1875 504.742188 341.28125 504.308594 339.429688 503.738281 C 340.347656 505.148438 341.03125 506.804688 342.222656 507.925781 C 356.03125 520.964844 369.863281 533.992188 383.890625 546.796875 C 385.082031 547.886719 388.234375 548.242188 389.585938 547.441406 C 392.160156 545.910156 394.503906 543.558594 396.113281 541.019531 C 396.824219 539.902344 396.121094 536.5 395.023438 535.824219 C 379.894531 526.527344 364.582031 517.527344 348.652344 507.792969 Z M 348.652344 507.792969 " fill-opacity="1" fill-rule="nonzero"/></svg>